HIERARCHY
ROOT Hips
{
 OFFSET 0.000000 0.000000 0.000000
 CHANNELS 6 Xposition Yposition Zposition Zrotation Xrotation Yrotation
 JOINT Chest
 {
  OFFSET 0.000000 4.000000 0.000000
  CHANNELS 3 Zrotation Xrotation Yrotation
  JOINT Head
  {
   OFFSET 0.000000 24.803150 0.000000
   CHANNELS 3 Zrotation Xrotation Yrotation
   End Site
   {
    OFFSET 0.000000 9.448819 0.000000
   }
  }
  JOINT LeftUpArm
  {
   OFFSET 7.086614 23.228346 0.000000
   CHANNELS 3 Zrotation Xrotation Yrotation
   JOINT LeftLowArm
   {
    OFFSET 0.000000 -11.811024 0.000000
    CHANNELS 3 Zrotation Xrotation Yrotation
    End Site
    {
     OFFSET 0.000000 -11.811024 0.000000
    }
   }
  }
  JOINT RightUpArm
  {
   OFFSET -7.086614 23.228346 0.000000
   CHANNELS 3 Zrotation Xrotation Yrotation
   JOINT RightLowArm
   {
    OFFSET 0.000000 -11.811024 0.000000
    CHANNELS 3 Zrotation Xrotation Yrotation
    End Site
    {
     OFFSET 0.000000 -11.811024 0.000000
    }
   }
  }
 }
 JOINT LeftUpLeg
 {
  OFFSET 3.937008 0.000000 0.000000
  CHANNELS 3 Zrotation Xrotation Yrotation
  JOINT LeftLowLeg
  {
   OFFSET 0.000000 -16.929134 0.000000
   CHANNELS 3 Zrotation Xrotation Yrotation
   End Site
   {
    OFFSET 0.000000 -19.685040 0.000000
   }
  }
 }
 JOINT RightUpLeg
 {
  OFFSET -3.937008 0.000000 0.000000
  CHANNELS 3 Zrotation Xrotation Yrotation
  JOINT RightLowLeg
  {
   OFFSET 0.000000 -16.929134 0.000000
   CHANNELS 3 Zrotation Xrotation Yrotation
   End Site
   {
    OFFSET 0.000000 -19.685040 0.000000
   }
  }
 }
}
MOTION
Frames: 21      
Frame Time: 0.033333
-113.584518 6.047060 43.480820 10.942300 -8.795171 -127.828194 5.754028 -4.624928 -18.646833 1.895918 -2.399442 -60.974659 4.634862 17.627853 -3.583651 -15.449309 -33.371723 -38.242924 -18.206366 -0.729009 23.095470 23.800028 -26.609295 30.594912 26.186268 -33.704407 32.750748 -11.715812 46.707699 9.329731 3.599331 -20.580372 10.492887 -5.141604 30.171770 9.982708
-114.621658 5.994324 43.340191 11.043235 -8.593114 -127.560677 5.710092 -4.451523 -18.419357 1.744330 -2.547078 -60.625340 4.668490 17.677900 -3.454834 -15.683990 -33.750507 -38.330154 -18.335871 -0.591922 23.002735 23.663532 -26.645491 30.677101 27.826965 -35.052479 31.909124 -11.808023 41.008297 11.010261 2.819915 -18.827654 9.490067 -5.423240 29.451086 10.239193
-116.757469 5.871273 43.181980 11.425332 -8.345029 -126.972176 5.649198 -4.030576 -17.463436 1.289549 -3.586584 -59.250378 4.807186 17.282845 -3.762570 -15.642579 -34.324810 -38.344063 -18.758108 -0.331209 22.572460 23.541309 -26.810472 30.324453 31.193058 -37.688213 30.793440 -8.885521 32.516094 10.119634 1.166845 -15.556071 7.665346 -6.379066 28.186354 11.280843
-117.812187 5.686697 43.094090 11.521586 -8.154290 -126.408401 5.593944 -3.689805 -16.907543 0.866447 -4.181020 -58.181221 4.882194 16.850639 -4.176978 -15.382930 -34.504574 -38.367672 -18.857180 -0.074183 22.150639 23.387768 -26.927521 30.032276 32.598866 -38.955383 30.375450 -7.253767 30.516903 9.070728 0.264351 -13.873470 6.653737 -6.810140 27.983852 11.738777
-118.972382 5.431807 42.988617 11.541179 -8.054351 -125.759239 5.440524 -3.229769 -16.148893 0.380151 -5.144147 -56.480671 5.013896 16.160177 -4.610068 -15.102386 -34.635666 -38.288414 -18.978798 0.135514 21.661692 23.197374 -26.997574 29.554131 33.715950 -40.154373 30.785606 -5.537110 29.211954 7.024283 -0.872381 -12.110547 5.555345 -7.348504 27.865520 12.335091
-121.292763 4.939604 42.883144 11.105595 -8.068461 -123.819969 4.516454 -2.408730 -14.431785 -0.520808 -6.974272 -52.625469 5.681077 14.929675 -5.721425 -14.703640 -35.216576 -38.136848 -18.969963 0.960050 20.416098 22.712315 -26.846838 28.635468 33.136536 -41.722622 32.585449 -4.198640 28.966173 -0.352215 -3.989494 -8.839251 2.677543 -7.710958 28.899643 12.587124
-122.593582 4.631977 42.847988 10.625264 -8.081539 -122.880249 3.787720 -1.901549 -13.120806 -0.834769 -7.723631 -50.480247 6.098215 14.422935 -5.903205 -14.791614 -35.655743 -38.474033 -18.798695 1.622883 19.758045 22.348948 -26.742455 28.273069 31.254860 -41.973278 32.285595 -4.293855 30.071066 -4.026648 -5.735790 -7.497320 1.050817 -8.178271 30.892174 12.719553
-125.186440 4.289193 42.751305 9.819195 -7.942267 -119.982063 2.527536 -1.146907 -11.302861 -1.040734 -9.034694 -46.202766 7.129689 13.502085 -5.671532 -15.709944 -36.567432 -40.149830 -18.224646 3.065427 18.248024 21.653826 -26.416973 28.831667 25.576538 -42.900623 29.189571 -3.760787 35.277786 -10.309491 -8.305758 -7.292725 -2.985911 -10.530507 37.752834 13.414157
-126.539993 4.174932 42.724937 9.653116 -7.613372 -118.919334 2.252480 -0.864258 -9.966607 -1.135567 -9.477887 -44.408028 7.607632 13.305935 -5.490655 -16.255758 -37.003662 -40.963364 -17.834675 3.739592 17.689096 21.284086 -26.253048 29.325817 23.051247 -41.768852 27.765320 -2.384112 37.245525 -13.087110 -8.054009 -8.302887 -4.800092 -13.701925 42.390053 14.495024
-129.027374 4.166143 42.557938 9.414317 -7.210973 -116.668419 1.742349 -0.244328 -8.095467 -1.356161 -10.675593 -41.267010 8.020211 12.823298 -5.075798 -16.909901 -37.326225 -41.952282 -17.226433 4.376138 16.840145 21.085518 -26.377478 30.408976 18.742941 -40.107368 25.004410 0.380967 41.289360 -15.756539 -6.133837 -11.633352 -8.455432 -23.590910 50.806450 18.655527
-130.205139 4.289193 42.434887 9.520709 -7.043342 -115.258263 1.665437 -0.084442 -7.616182 -1.566337 -11.374009 -39.941422 8.156218 12.524866 -5.164443 -16.878927 -36.962399 -41.817093 -16.982157 4.618860 16.103523 21.299768 -26.609213 31.110373 16.690876 -38.709976 23.723330 1.411658 42.058914 -16.443550 -4.952947 -14.386439 -11.064282 -30.462847 54.144577 22.990553
-132.323380 4.684713 42.188789 9.851740 -6.430448 -111.598007 2.110869 0.437538 -8.227255 -1.988931 -12.724032 -37.320610 7.790060 12.009544 -5.271560 -16.234419 -35.987083 -40.378658 -16.850981 4.840197 15.103391 22.070141 -27.784386 31.566719 13.065154 -35.561924 21.146481 1.915640 41.015320 -16.860350 -4.580642 -19.204580 -12.758639 -34.875492 59.852367 25.153400
-133.290207 4.965972 42.056946 10.131754 -6.134923 -109.656433 2.412367 0.584373 -8.751864 -2.184658 -13.332141 -36.023518 7.553329 11.688461 -5.216450 -15.826886 -35.289764 -39.493801 -16.804911 4.949087 14.412587 22.588905 -28.571167 31.691181 11.357592 -33.949341 19.337061 1.838913 39.807281 -16.548029 -4.747226 -22.442156 -13.490733 -35.723351 62.022892 26.168871
-134.248230 5.238441 41.942688 10.354131 -5.814463 -107.888618 2.806924 0.866517 -9.225671 -2.264978 -13.791265 -34.655594 7.228124 11.298717 -5.042781 -15.486293 -34.577488 -38.755051 -16.826567 5.054883 13.632971 23.106621 -29.457561 31.966352 9.915487 -32.146034 17.374834 1.407371 38.397499 -15.596555 -4.389629 -25.320074 -12.957295 -33.858997 63.391312 24.756939
-136.190674 5.748222 41.687794 10.941167 -5.417623 -104.918495 3.335810 1.139773 -9.886998 -2.029211 -14.331016 -31.942726 6.718600 10.756442 -4.661917 -15.424392 -33.689938 -37.960823 -16.738075 5.412548 12.398469 23.766560 -31.394323 32.537895 7.989891 -28.609964 14.234525 0.398579 35.432777 -13.703593 -2.614167 -30.463419 -9.848965 -23.694412 62.584579 16.143068
-137.192657 5.906430 41.555954 11.230405 -5.195126 -103.701035 3.564321 1.328885 -10.051133 -1.897423 -14.571959 -30.719931 6.514931 10.469109 -4.650335 -15.328040 -33.334503 -37.629280 -16.669037 5.458263 11.959257 23.973257 -32.297474 32.857315 7.399510 -26.775774 13.017790 -0.123375 34.001049 -12.952617 -1.657523 -32.729385 -8.208943 -17.758440 60.020874 11.589849
-138.194641 6.003113 41.432903 11.462126 -4.987145 -102.632576 3.763527 1.543097 -10.149061 -1.715099 -14.641692 -29.612909 6.342677 10.248434 -4.705413 -15.282958 -33.099827 -37.363106 -16.623034 5.473283 11.603326 24.089199 -33.159645 33.194599 6.913085 -25.028833 11.871501 -0.558082 32.764206 -12.383029 -0.698649 -34.647865 -6.663406 -12.137074 56.176582 7.410144
-140.224976 5.985534 41.195595 11.711515 -4.693497 -100.775223 3.895526 2.013191 -10.114225 -1.429763 -14.608504 -27.556862 6.317521 9.904468 -5.328431 -14.973056 -32.639755 -36.704819 -16.428011 5.589757 11.097745 24.059334 -34.553005 33.730618 6.165466 -21.604265 9.669516 -1.544118 30.825371 -11.568036 0.820639 -37.405697 -4.480146 -5.396968 45.871918 3.591455
-141.270920 5.836116 41.098911 11.720248 -4.538380 -99.856865 3.948576 2.267346 -10.055307 -1.342495 -14.372639 -26.307936 6.287665 9.758384 -5.645990 -14.718166 -32.400688 -36.440449 -16.320166 5.684512 10.899309 23.913275 -35.062023 33.785042 5.765811 -19.922688 8.374027 -1.857044 30.185045 -11.227066 1.524704 -38.179996 -3.953104 -4.651230 39.866890 4.638817
-143.459457 5.343913 40.923122 11.478930 -4.389180 -98.043732 4.158955 2.777794 -9.800915 -1.138121 -13.180839 -22.659573 6.191000 9.390580 -6.398148 -14.179295 -31.849346 -35.641552 -16.239012 5.941040 10.298469 23.679604 -35.841778 33.925056 4.907907 -16.273830 5.783437 -2.312385 29.216896 -10.967464 2.506929 -38.872719 -3.740522 -5.787904 29.048265 8.422567
-144.628433 5.001129 40.835232 11.214438 -4.419480 -97.324547 4.258459 3.003504 -9.423068 -0.955877 -12.144889 -20.053871 6.064331 9.218078 -6.708314 -13.842813 -31.543648 -35.439049 -16.243927 6.176091 9.817275 23.812395 -36.224052 34.209576 4.417618 -14.243370 5.013167 -2.214981 29.150278 -11.336856 3.056516 -38.970886 -3.347041 -6.751270 24.042900 9.988976
